<svg id="圖層_1" data-name="圖層 1" xmlns="http://www.w3.org/2000/svg" viewBox="0 0 1000 1000"><defs><style>.cls-1{fill:#f29c61;}</style></defs><title>LOGO</title><rect x="850.28" y="462.46" width="32.33" height="32.33"/><rect x="907.37" y="462.46" width="32.33" height="32.33"/><path class="cls-1" d="M117.18,428.19,387.35,646.26s-122.7,59.93-218.41-33.77C81.52,526.9,117.18,428.19,117.18,428.19Z"/><path d="M493.46,394a208.25,208.25,0,0,0-400.09,81c0,2.37.06,4.72.14,7.06h8.54a192.78,192.78,0,0,0,15.39,76,190,190,0,0,0,41.63,60.89,192.52,192.52,0,0,0,135,55.14v9q3.73.14,7.5.14a207.9,207.9,0,0,0,172.66-91.8l.39-.59H439a178.94,178.94,0,1,1,37.79-75.52h29.1A209.16,209.16,0,0,0,493.46,394Z"/><path d="M467.31,620.51a220.69,220.69,0,1,1-338.69-283l-8.74-7.3A232.07,232.07,0,1,0,476.05,627.81l-8.74-7.3Z"/><polygon points="886.18 428.19 886.18 419.76 670.84 419.76 655.1 435.49 655.1 536.43 423.29 536.43 388.58 536.43 380.52 544.49 380.52 556.84 388.58 564.9 423.29 564.9 670.54 564.9 683.57 551.86 683.57 448.23 939.7 448.23 939.7 428.19 886.18 428.19"/></svg>