<svg id="圖層_1" data-name="圖層 1" xmlns="http://www.w3.org/2000/svg" viewBox="0 0 768.25 390.11"><defs><style>.cls-1{fill:#f29c61;}</style></defs><title>LOGO</title><path class="cls-1" d="M142.9,457.65,380.17,649.16s-106.16,55-192.7-38.37S142.9,457.65,142.9,457.65Z" transform="translate(-96.98 -315.98)"/><path d="M473.35,427.66A182.88,182.88,0,0,0,122,498.84c0,2.08,0,4.14.11,6.2h7.51a169.25,169.25,0,0,0,13.51,66.76,167,167,0,0,0,36.56,53.47A169.08,169.08,0,0,0,298.27,673.7v7.88q3.28.12,6.59.12a182.57,182.57,0,0,0,151.63-80.61c.11-.17.22-.35.34-.52H425.55a158.89,158.89,0,0,1-32.44,29.18,157.92,157.92,0,1,1,69.61-130.91,158.75,158.75,0,0,1-4,35.41h25.55a183.81,183.81,0,0,0-10.94-106.59Z" transform="translate(-96.98 -315.98)"/><rect x="689.72" y="171.77" width="28.39" height="28.39"/><rect x="739.86" y="171.77" width="28.39" height="28.39"/><path d="M449.5,626.54A193.8,193.8,0,1,1,152.07,378l-7.68-6.41A203.81,203.81,0,1,0,457.18,633l-7.68-6.42Z" transform="translate(-96.98 -315.98)"/><polygon points="721.25 141.67 721.25 134.27 532.14 134.27 518.32 148.09 518.32 236.73 314.75 236.73 284.27 236.73 277.19 243.81 277.19 254.65 284.27 261.73 314.75 261.73 531.88 261.73 543.32 250.28 543.32 159.27 768.25 159.27 768.25 141.67 721.25 141.67"/></svg>