<?xml version="1.0" encoding="utf-8"?>
<!-- Generator: Adobe Illustrator 16.0.0, SVG Export Plug-In . SVG Version: 6.00 Build 0)  -->
<!DOCTYPE svg PUBLIC "-//W3C//DTD SVG 1.1//EN" "http://www.w3.org/Graphics/SVG/1.1/DTD/svg11.dtd">
<svg version="1.1" id="圖層_1" xmlns="http://www.w3.org/2000/svg" xmlns:xlink="http://www.w3.org/1999/xlink" x="0px" y="0px"
	 width="1206px" height="1206px" viewBox="0 0 1206 1206" enable-background="new 0 0 1206 1206" xml:space="preserve">
<g>
	
		<linearGradient id="SVGID_1_" gradientUnits="userSpaceOnUse" x1="691.708" y1="23.5513" x2="559.3585" y2="244.5878" gradientTransform="matrix(-1 0 0 1 1145.041 0)">
		<stop  offset="0" style="stop-color:#ADDBDC"/>
		<stop  offset="0.456" style="stop-color:#91BCE5"/>
		<stop  offset="1" style="stop-color:#6EA2D2"/>
	</linearGradient>
	<path fill="url(#SVGID_1_)" d="M308.765,135.236C326.556,114.83,414.757,21.572,474.975,13.41
		c43.569-5.907,124.08,12.603,174.077,30.124c76.633,74.389,142.039,189.057,166.635,234.948
		C406.02,92.016,308.765,135.236,308.765,135.236z"/>
	
		<linearGradient id="SVGID_2_" gradientUnits="userSpaceOnUse" x1="285.8711" y1="121.4854" x2="449.4779" y2="-115.7445" gradientTransform="matrix(1 0 0 -1 67.3721 1023.0371)">
		<stop  offset="0" style="stop-color:#CFC4B8"/>
		<stop  offset="0.4526" style="stop-color:#D1C6BA"/>
		<stop  offset="0.7011" style="stop-color:#D6CDC3"/>
		<stop  offset="0.8995" style="stop-color:#E0D9D1"/>
		<stop  offset="1" style="stop-color:#E8E3DD"/>
	</linearGradient>
	<path fill="url(#SVGID_2_)" d="M556.957,1162.466c-19.11-6.695-33.778-13.239-40.201-18.229
		c-87.588-68.028-169.706-236.718-169.706-236.718c14.804,6.951,29.206,13.6,43.272,20
		C414.913,973.417,480.323,1088.077,556.957,1162.466z"/>
	
		<linearGradient id="SVGID_3_" gradientUnits="userSpaceOnUse" x1="685.3008" y1="-159.4131" x2="552.9515" y2="61.623" gradientTransform="matrix(1 0 0 -1 67.3721 1023.0371)">
		<stop  offset="0" style="stop-color:#ADDBDC"/>
		<stop  offset="0.456" style="stop-color:#91BCE5"/>
		<stop  offset="1" style="stop-color:#6FA2D1"/>
	</linearGradient>
	<path fill="url(#SVGID_3_)" d="M897.244,1070.771c-17.796,20.406-105.993,113.655-166.211,121.818
		c-43.572,5.907-124.084-12.603-174.076-30.124c-76.634-74.389-142.044-189.049-166.635-234.947
		C799.984,1113.984,897.244,1070.771,897.244,1070.771z"/>
	
		<linearGradient id="SVGID_4_" gradientUnits="userSpaceOnUse" x1="203.1538" y1="272.2646" x2="366.4261" y2="35.5199" gradientTransform="matrix(-0.7071 -0.7071 -0.7071 0.7071 1329.0918 518.7148)">
		<stop  offset="0" style="stop-color:#CFC4B8"/>
		<stop  offset="0.4526" style="stop-color:#D1C6BA"/>
		<stop  offset="0.7011" style="stop-color:#D6CDC3"/>
		<stop  offset="0.8995" style="stop-color:#E0D9D1"/>
		<stop  offset="1" style="stop-color:#E8E3DD"/>
	</linearGradient>
	<path fill="url(#SVGID_4_)" d="M1033.549,239.765c8.749,18.167,14.459,33.105,15.453,41.148
		c13.545,109.662-48.389,286.667-48.389,286.667c-5.525-15.321-10.979-30.148-16.371-44.56
		C999.499,473.286,1034.816,346.23,1033.549,239.765z"/>
	
		<linearGradient id="SVGID_5_" gradientUnits="userSpaceOnUse" x1="601.8823" y1="-7.2617" x2="469.9648" y2="213.0534" gradientTransform="matrix(-0.7071 -0.7071 -0.7071 0.7071 1329.0918 518.7148)">
		<stop  offset="0" style="stop-color:#ADDBDC"/>
		<stop  offset="0.456" style="stop-color:#91BCE5"/>
		<stop  offset="1" style="stop-color:#6FA2D1"/>
	</linearGradient>
	<path fill="url(#SVGID_5_)" d="M727.698,65.431c27.097-1.929,155.8-5.875,204.188,30.682
		c35.013,26.449,78.771,96.119,101.662,143.652c1.268,106.465-34.05,233.521-49.307,283.254
		C827.21,103.223,727.698,65.431,727.698,65.431z"/>
	
		<linearGradient id="SVGID_6_" gradientUnits="userSpaceOnUse" x1="373.3164" y1="149.4033" x2="536.5892" y2="-87.3421" gradientTransform="matrix(0.7071 0.7071 0.7071 -0.7071 -156.5371 480.0869)">
		<stop  offset="0" style="stop-color:#CFC4B8"/>
		<stop  offset="0.4526" style="stop-color:#D1C6BA"/>
		<stop  offset="0.7011" style="stop-color:#D6CDC3"/>
		<stop  offset="0.8995" style="stop-color:#E0D9D1"/>
		<stop  offset="1" style="stop-color:#E8E3DD"/>
	</linearGradient>
	<path fill="url(#SVGID_6_)" d="M172.452,966.235c-8.741-18.159-14.46-33.098-15.454-41.148
		c-13.545-109.662,48.397-286.666,48.397-286.666c5.524,15.321,10.97,30.147,16.367,44.561
		C206.502,732.722,171.185,859.778,172.452,966.235z"/>
	
		<linearGradient id="SVGID_7_" gradientUnits="userSpaceOnUse" x1="772.0488" y1="-130.126" x2="640.1301" y2="90.1911" gradientTransform="matrix(0.7071 0.7071 0.7071 -0.7071 -156.5371 480.0869)">
		<stop  offset="0" style="stop-color:#ADDBDC"/>
		<stop  offset="0.456" style="stop-color:#91BCE5"/>
		<stop  offset="1" style="stop-color:#6FA2D1"/>
	</linearGradient>
	<path fill="url(#SVGID_7_)" d="M478.303,1140.577c-27.094,1.921-155.797,5.867-204.189-30.682
		c-35.005-26.449-78.767-96.127-101.661-143.66c-1.268-106.457,34.05-233.514,49.311-283.254
		C378.794,1102.776,478.303,1140.577,478.303,1140.577z"/>
	
		<linearGradient id="SVGID_8_" gradientUnits="userSpaceOnUse" x1="163.2031" y1="188.1045" x2="327.0848" y2="-49.5238" gradientTransform="matrix(4.489659e-011 -1 -1 -4.489659e-011 1092.2695 1015.5723)">
		<stop  offset="0" style="stop-color:#CFC4B8"/>
		<stop  offset="0.4526" style="stop-color:#D1C6BA"/>
		<stop  offset="0.7011" style="stop-color:#D6CDC3"/>
		<stop  offset="0.8995" style="stop-color:#E0D9D1"/>
		<stop  offset="1" style="stop-color:#E8E3DD"/>
	</linearGradient>
	<path fill="url(#SVGID_8_)" d="M1165.837,648.775c-6.733,18.988-13.325,33.568-18.345,39.952
		c-68.434,87.072-238.14,168.699-238.14,168.699c6.993-14.716,13.681-29.04,20.121-43.014
		C975.641,789.964,1091,724.941,1165.837,648.775z"/>
	
		<linearGradient id="SVGID_9_" gradientUnits="userSpaceOnUse" x1="562.0947" y1="-93.0723" x2="429.7205" y2="128.0055" gradientTransform="matrix(4.489659e-011 -1 -1 -4.489659e-011 1092.2695 1015.5723)">
		<stop  offset="0" style="stop-color:#ADDBDC"/>
		<stop  offset="0.456" style="stop-color:#91BCE5"/>
		<stop  offset="1" style="stop-color:#6FA2D1"/>
	</linearGradient>
	<path fill="url(#SVGID_9_)" d="M1073.586,310.526c20.529,17.681,114.344,105.35,122.556,165.215
		c5.942,43.309-12.678,123.333-30.305,173.034C1091,724.941,975.641,789.964,929.474,814.413
		C1117.063,407.196,1073.586,310.526,1073.586,310.526z"/>
	
		<linearGradient id="SVGID_10_" gradientUnits="userSpaceOnUse" x1="415.7251" y1="232.603" x2="579.6068" y2="-5.0253" gradientTransform="matrix(-4.489659e-011 1 1 4.489659e-011 69.2334 -62.0933)">
		<stop  offset="0" style="stop-color:#CFC4B8"/>
		<stop  offset="0.4526" style="stop-color:#D1C6BA"/>
		<stop  offset="0.7011" style="stop-color:#D6CDC3"/>
		<stop  offset="0.8995" style="stop-color:#E0D9D1"/>
		<stop  offset="1" style="stop-color:#E8E3DD"/>
	</linearGradient>
	<path fill="url(#SVGID_10_)" d="M40.164,557.224c6.736-18.988,13.32-33.567,18.34-39.952
		c68.43-87.071,238.151-168.69,238.151-168.69c-6.992,14.715-13.688,29.032-20.128,43.013
		C230.352,416.036,115.001,481.059,40.164,557.224z"/>
	
		<linearGradient id="SVGID_11_" gradientUnits="userSpaceOnUse" x1="814.6152" y1="-48.5762" x2="682.2419" y2="172.5002" gradientTransform="matrix(-4.489659e-011 1 1 4.489659e-011 69.2334 -62.0933)">
		<stop  offset="0" style="stop-color:#ADDBDC"/>
		<stop  offset="0.456" style="stop-color:#91BCE5"/>
		<stop  offset="1" style="stop-color:#6FA2D1"/>
	</linearGradient>
	<path fill="url(#SVGID_11_)" d="M132.411,895.474C111.881,877.793,18.07,790.124,9.858,730.259
		c-5.942-43.308,12.679-123.332,30.306-173.035c74.837-76.166,190.188-141.188,236.363-165.629
		C88.938,798.805,132.411,895.474,132.411,895.474z"/>
	
		<linearGradient id="SVGID_12_" gradientUnits="userSpaceOnUse" x1="194.2441" y1="102.1016" x2="358.4633" y2="-136.0161" gradientTransform="matrix(0.7071 -0.7071 -0.7071 -0.7071 573.5557 1199.6211)">
		<stop  offset="0" style="stop-color:#CFC4B8"/>
		<stop  offset="0.4526" style="stop-color:#D1C6BA"/>
		<stop  offset="0.7011" style="stop-color:#D6CDC3"/>
		<stop  offset="0.8995" style="stop-color:#E0D9D1"/>
		<stop  offset="1" style="stop-color:#E8E3DD"/>
	</linearGradient>
	<path fill="url(#SVGID_12_)" d="M968.423,1030.971c-18.268,8.696-33.304,14.372-41.396,15.361
		c-110.326,13.463-288.393-48.1-288.393-48.1c15.413-5.492,30.329-10.921,44.828-16.277
		C733.5,997.117,861.32,1032.23,968.423,1030.971z"/>
	
		<linearGradient id="SVGID_13_" gradientUnits="userSpaceOnUse" x1="593.8403" y1="-180.4492" x2="461.034" y2="41.3503" gradientTransform="matrix(0.7071 -0.7071 -0.7071 -0.7071 573.5557 1199.6211)">
		<stop  offset="0" style="stop-color:#ADDBDC"/>
		<stop  offset="0.456" style="stop-color:#91BCE5"/>
		<stop  offset="1" style="stop-color:#6FA2D1"/>
	</linearGradient>
	<path fill="url(#SVGID_13_)" d="M1143.811,726.951c1.937,26.935,5.907,154.867-30.87,202.967
		c-26.607,34.803-96.697,78.294-144.518,101.053c-107.103,1.26-234.923-33.854-284.96-49.016
		C1105.787,825.867,1143.811,726.951,1143.811,726.951z"/>
	
		<linearGradient id="SVGID_14_" gradientUnits="userSpaceOnUse" x1="386.6621" y1="323.1826" x2="550.8851" y2="85.0593" gradientTransform="matrix(-0.7071 0.7071 0.7071 0.7071 612.1836 -286.0039)">
		<stop  offset="0" style="stop-color:#CFC4B8"/>
		<stop  offset="0.4526" style="stop-color:#D1C6BA"/>
		<stop  offset="0.7011" style="stop-color:#D6CDC3"/>
		<stop  offset="0.8995" style="stop-color:#E0D9D1"/>
		<stop  offset="1" style="stop-color:#E8E3DD"/>
	</linearGradient>
	<path fill="url(#SVGID_14_)" d="M237.577,175.029c18.269-8.689,33.296-14.372,41.396-15.36
		c110.323-13.464,288.397,48.107,288.397,48.107c-15.417,5.492-30.333,10.905-44.832,16.27
		C472.497,208.868,344.68,173.77,237.577,175.029z"/>
	
		<linearGradient id="SVGID_15_" gradientUnits="userSpaceOnUse" x1="786.2598" y1="40.6255" x2="653.453" y2="262.4257" gradientTransform="matrix(-0.7071 0.7071 0.7071 0.7071 612.1836 -286.0039)">
		<stop  offset="0" style="stop-color:#ADDBDC"/>
		<stop  offset="0.456" style="stop-color:#91BCE5"/>
		<stop  offset="1" style="stop-color:#6FA2D1"/>
	</linearGradient>
	<path fill="url(#SVGID_15_)" d="M62.185,479.049c-1.933-26.935-5.901-154.867,30.875-202.966
		c26.601-34.795,96.697-78.303,144.518-101.053c107.103-1.259,234.92,33.838,284.961,49.016
		C100.213,380.132,62.185,479.049,62.185,479.049z"/>
	
		<linearGradient id="SVGID_16_" gradientUnits="userSpaceOnUse" x1="303.6553" y1="312.4824" x2="484.2898" y2="50.5625" gradientTransform="matrix(-1 0 0 1 1145.041 0)">
		<stop  offset="0" style="stop-color:#FCD68E"/>
		<stop  offset="0.2456" style="stop-color:#F6DBAB"/>
		<stop  offset="0.567" style="stop-color:#EEDFC8"/>
		<stop  offset="0.8301" style="stop-color:#E9E2DA"/>
		<stop  offset="1" style="stop-color:#E7E3E0"/>
	</linearGradient>
	<path fill="url(#SVGID_16_)" d="M858.959,298.49l-72.11-32.985c0,0-63.758-147.12-179.531-234.78c0,0,42.215,9.629,79.726,29.605
		C687.043,60.33,749.406,93.072,858.959,298.49z"/>
	
		<linearGradient id="SVGID_17_" gradientUnits="userSpaceOnUse" x1="485.0977" y1="302.0317" x2="666.3848" y2="39.1656" gradientTransform="matrix(-0.7067 0.7075 0.7075 0.7067 694.0952 -327.293)">
		<stop  offset="0" style="stop-color:#FCD68E"/>
		<stop  offset="0.2456" style="stop-color:#F6DBAB"/>
		<stop  offset="0.567" style="stop-color:#EEDFC8"/>
		<stop  offset="0.8301" style="stop-color:#E9E2DA"/>
		<stop  offset="1" style="stop-color:#E7E3E0"/>
	</linearGradient>
	<path fill="url(#SVGID_17_)" d="M567.38,207.577l-74.434,27.405c0,0-149.771-59.132-293.99-39.666c0,0,36.696-22.886,77.415-35.146
		C276.371,160.171,343.737,139.453,567.38,207.577z"/>
	
		<linearGradient id="SVGID_18_" gradientUnits="userSpaceOnUse" x1="632.2402" y1="232.4097" x2="813.0998" y2="-29.8366" gradientTransform="matrix(0.0099 1 1.0096 -0.01 69.168 -266.6074)">
		<stop  offset="0" style="stop-color:#FCD68E"/>
		<stop  offset="0.2456" style="stop-color:#F6DBAB"/>
		<stop  offset="0.567" style="stop-color:#EEDFC8"/>
		<stop  offset="0.8301" style="stop-color:#E9E2DA"/>
		<stop  offset="1" style="stop-color:#E7E3E0"/>
	</linearGradient>
	<path fill="url(#SVGID_18_)" d="M296.655,347.107l-32.791,72.006c0,0-148.795,64.839-236.699,180.791
		c0,0,9.374-42.065,29.282-79.542C56.447,520.361,89.086,458.061,296.655,347.107z"/>
	
		<linearGradient id="SVGID_19_" gradientUnits="userSpaceOnUse" x1="724.9297" y1="145.4526" x2="905.1486" y2="-115.8646" gradientTransform="matrix(0.7108 0.7034 0.7075 -0.715 -391.5234 234.7539)">
		<stop  offset="0" style="stop-color:#FCD68E"/>
		<stop  offset="0.2456" style="stop-color:#F6DBAB"/>
		<stop  offset="0.567" style="stop-color:#EEDFC8"/>
		<stop  offset="0.8301" style="stop-color:#E9E2DA"/>
		<stop  offset="1" style="stop-color:#E7E3E0"/>
	</linearGradient>
	<path fill="url(#SVGID_19_)" d="M205.235,638.5l27.778,74.007c0,0-59.399,149.754-39.512,293.391c0,0-23.155-36.417-35.598-76.912
		C157.904,928.985,136.894,861.979,205.235,638.5z"/>
	
		<linearGradient id="SVGID_20_" gradientUnits="userSpaceOnUse" x1="732.5371" y1="111.4434" x2="913.1794" y2="-150.4878" gradientTransform="matrix(1 -0.0053 -0.0053 -1.0059 -368.3232 1009.2954)">
		<stop  offset="0" style="stop-color:#FCD68E"/>
		<stop  offset="0.2456" style="stop-color:#F6DBAB"/>
		<stop  offset="0.567" style="stop-color:#EEDFC8"/>
		<stop  offset="0.8301" style="stop-color:#E9E2DA"/>
		<stop  offset="1" style="stop-color:#E7E3E0"/>
	</linearGradient>
	<path fill="url(#SVGID_20_)" d="M346.119,907.519l72.291,32.802c0,0,64.536,147.638,180.779,235.219
		c0,0-42.278-9.474-79.884-29.362C519.306,1146.177,456.782,1113.569,346.119,907.519z"/>
	
		<linearGradient id="SVGID_21_" gradientUnits="userSpaceOnUse" x1="754.7061" y1="114.1304" x2="935.9941" y2="-148.7372" gradientTransform="matrix(0.7039 -0.7103 -0.7145 -0.708 191.1934 1593.5254)">
		<stop  offset="0" style="stop-color:#FCD68E"/>
		<stop  offset="0.2456" style="stop-color:#F6DBAB"/>
		<stop  offset="0.567" style="stop-color:#EEDFC8"/>
		<stop  offset="0.8301" style="stop-color:#E9E2DA"/>
		<stop  offset="1" style="stop-color:#E7E3E0"/>
	</linearGradient>
	<path fill="url(#SVGID_21_)" d="M638.635,998.504l74.472-27.565c0,0,150.611,59.147,295.125,39.482
		c0,0-36.648,22.997-77.399,35.325C930.832,1045.746,863.409,1066.591,638.635,998.504z"/>
	
		<linearGradient id="SVGID_22_" gradientUnits="userSpaceOnUse" x1="774.4189" y1="189.3623" x2="955.2828" y2="-72.8903" gradientTransform="matrix(-0.0077 -1 -1.0077 0.0077 1092.7515 1614.9224)">
		<stop  offset="0" style="stop-color:#FCD68E"/>
		<stop  offset="0.2456" style="stop-color:#F6DBAB"/>
		<stop  offset="0.567" style="stop-color:#EEDFC8"/>
		<stop  offset="0.8301" style="stop-color:#E9E2DA"/>
		<stop  offset="1" style="stop-color:#E7E3E0"/>
	</linearGradient>
	<path fill="url(#SVGID_22_)" d="M909.353,858.191l32.888-71.938c0,0,148.651-64.504,236.651-180.269
		c0,0-9.446,42.049-29.406,79.479C1149.485,685.464,1116.773,747.692,909.353,858.191z"/>
	
		<linearGradient id="SVGID_23_" gradientUnits="userSpaceOnUse" x1="859.8115" y1="279.6943" x2="1040.0282" y2="18.3802" gradientTransform="matrix(-0.7138 -0.7004 -0.7058 0.7193 1791.0273 966.5371)">
		<stop  offset="0" style="stop-color:#FCD68E"/>
		<stop  offset="0.2456" style="stop-color:#F6DBAB"/>
		<stop  offset="0.567" style="stop-color:#EEDFC8"/>
		<stop  offset="0.8301" style="stop-color:#E9E2DA"/>
		<stop  offset="1" style="stop-color:#E7E3E0"/>
	</linearGradient>
	<path fill="url(#SVGID_23_)" d="M1001.371,567.58l-28.056-73.935c0,0,58.959-150.196,38.573-293.872
		c0,0,23.304,36.333,35.887,76.804C1047.775,276.577,1069.03,343.536,1001.371,567.58z"/>
</g>
</svg>
